<svg version="1.2" xmlns="http://www.w3.org/2000/svg" viewBox="0 0 24 24" width="150" height="150">
	<title>IcBaselineSpatialAudioOff-svg</title>
	<style>
		.s0 { fill: #f0eee8 } 
	</style>
	<path id="Layer" class="s0" d="m10 13c-2.2 0-4-1.8-4-4 0-2.2 1.8-4 4-4 2.2 0 4 1.8 4 4 0 2.2-1.8 4-4 4z"/>
	<path id="Layer" class="s0" d="m16.4 15.6c-1.7-0.9-3.9-1.6-6.4-1.6-2.5 0-4.7 0.7-6.4 1.6q-0.4 0.1-0.7 0.4-0.3 0.3-0.5 0.7-0.2 0.3-0.3 0.7-0.1 0.4-0.1 0.8v2.8h16v-2.8c0-1.1-0.6-2.1-1.6-2.6zm4-14.6l-1.4 1.4q0.9 1 1.5 2.3 0.5 1.3 0.5 2.7 0 1.4-0.5 2.6-0.6 1.3-1.6 2.3l1.5 1.4c0.8-0.8 1.5-1.8 1.9-2.9 0.5-1.1 0.7-2.3 0.7-3.4 0-1.2-0.2-2.4-0.7-3.5-0.4-1.1-1.1-2.1-1.9-2.9z"/>
	<path id="Layer" class="s0" d="m17.5 10.9q0.7-0.7 1.1-1.6 0.4-0.9 0.4-1.9 0-1-0.4-1.9-0.4-1-1.1-1.7l-1.4 1.4q0.5 0.5 0.7 1 0.2 0.6 0.2 1.2 0 0.6-0.2 1.1-0.2 0.6-0.7 1z"/>
</svg>