<svg xmlns="http://www.w3.org/2000/svg" xmlns:xlink="http://www.w3.org/1999/xlink" width="181" height="172" viewBox="0 0 181 172"><title>Group 2</title><g id="Popup" stroke="none" stroke-width="1" fill="none" fill-rule="evenodd"><g id="easy-readlogo-partof" transform="translate(-175.000000, -221.000000)"><g id="Group" transform="translate(175.000000, 200.000000)"><g id="Group-2" transform="translate(0.000000, 21.000000)"><rect id="Rectangle" fill="#79ddf2" x="0" y="0" width="180.390244" height="172"/><g id="1464214_cursor_edit_search_text-cursor_text-select_icon" transform="translate(25.000000, 18.000000)" fill="#000" fill-rule="nonzero"><path d="M81.8742207.0H131V16.5H81.8742207V0zM106.43711 132C101.909351 132 98.2494805 128.31225 98.2494805 123.75V8.25c0-4.554 3.6598705-8.25 8.1876295-8.25 4.52776.0 8.18763 3.696 8.18763 8.25v115.5c0 4.56225000000001-3.65987 8.25-8.18763 8.25zM81.8742207 115.5H131V132H81.8742207V115.5zm-8.1794422-8.25c-3.1440499.0-6.1325348-1.82325-7.4916814-4.90049999999999L40.9360713 45.0615l-25.2670258 57.288C13.8350164 106.5075 8.99612715 108.38025 4.86137406 106.5405.734808601 104.68425-1.13197101 99.81675.710245712 95.6505L33.4607652 21.4005C34.770786 18.42225 37.7019575 16.5 40.9360713 16.5c3.2341138.0 6.1652853 1.92225 7.4834937 4.9005l32.7505195 74.25C83.0041136 99.81675 81.1455217 104.6925 77.0107686 106.5405 75.9300014 107.02725 74.8082961 107.25 73.6947785 107.25zM65.498961 90.75H16.3731817C11.85361 90.75 8.18555179 87.06225 8.18555179 82.5S11.85361 74.25 16.3731817 74.25H65.498961C70.0185327 74.25 73.6865908 77.93775 73.6865908 82.5S70.0185327 90.75 65.498961 90.75z" id="Shape"/></g></g></g></g></g></svg>